{
  "accessors": [
    {
      "bufferView": 2,
      "componentType": 5126,
      "count": 4607,
      "max": [
        12.818984985351563,
        16.608257293701172,
        33.93325424194336
      ],
      "min": [
        -12.818984985351563,
        -21.431068420410156,
        3.016263008117676
      ],
      "type": "VEC3"
    },
    {
      "bufferView": 2,
      "byteOffset": 55284,
      "componentType": 5126,
      "count": 4607,
      "max": [
        1.0,
        1.0,
        1.0
      ],
      "min": [
        -1.0,
        -1.0,
        -1.0
      ],
      "type": "VEC3"
    },
    {
      "bufferView": 3,
      "componentType": 5126,
      "count": 4607,
      "max": [
        0.9999957084655762,
        0.9983081221580505,
        0.9990201592445374,
        1.0
      ],
      "min": [
        -0.9999783039093018,
        -0.9999038577079773,
        -0.999963641166687,
        -1.0
      ],
      "type": "VEC4"
    },
    {
      "bufferView": 1,
      "componentType": 5126,
      "count": 4607,
      "max": [
        0.9980000257492065,
        0.9452300071716309
      ],
      "min": [
        -0.9980000257492065,
        0.0020000000949949026
      ],
      "type": "VEC2"
    },
    {
      "bufferView": 0,
      "componentType": 5125,
      "count": 14328,
      "type": "SCALAR"
    },
    {
      "bufferView": 2,
      "byteOffset": 110568,
      "componentType": 5126,
      "count": 3643,
      "max": [
        12.818984985351563,
        16.00341033935547,
        32.605201721191406
      ],
      "min": [
        -12.818984985351563,
        -20.903751373291016,
        3.2665200233459473
      ],
      "type": "VEC3"
    },
    {
      "bufferView": 2,
      "byteOffset": 154284,
      "componentType": 5126,
      "count": 3643,
      "max": [
        0.9988803863525391,
        1.0,
        1.0
      ],
      "min": [
        -0.9988803863525391,
        -1.0,
        -1.0
      ],
      "type": "VEC3"
    },
    {
      "bufferView": 3,
      "byteOffset": 73712,
      "componentType": 5126,
      "count": 3643,
      "max": [
        0.9999895691871643,
        0.9970138072967529,
        0.9999818205833435,
        1.0
      ],
      "min": [
        -0.9988893866539001,
        -0.9987109303474426,
        -0.9993509650230408,
        -1.0
      ],
      "type": "VEC4"
    },
    {
      "bufferView": 1,
      "byteOffset": 36856,
      "componentType": 5126,
      "count": 3643,
      "max": [
        0.9976329803466797,
        0.9980000257492065
      ],
      "min": [
        -0.9980000257492065,
        0.0020000000949949026
      ],
      "type": "VEC2"
    },
    {
      "bufferView": 0,
      "byteOffset": 57312,
      "componentType": 5125,
      "count": 12432,
      "type": "SCALAR"
    }
  ],
  "asset": {
    "extras": {
      "author": "McCarthy3D (https://sketchfab.com/joshuawatt811)",
      "license": "CC-BY-4.0 (http://creativecommons.org/licenses/by/4.0/)",
      "source": "https://sketchfab.com/3d-models/recon-helmet-7de7e0104b2249ed98bb437f760dffec",
      "title": "Recon Helmet"
    },
    "generator": "Sketchfab-12.68.0",
    "version": "2.0"
  },
  "bufferViews": [
    {
      "buffer": 0,
      "byteLength": 107040,
      "name": "floatBufferViews",
      "target": 34963
    },
    {
      "buffer": 0,
      "byteLength": 66000,
      "byteOffset": 107040,
      "byteStride": 8,
      "name": "floatBufferViews",
      "target": 34962
    },
    {
      "buffer": 0,
      "byteLength": 198000,
      "byteOffset": 173040,
      "byteStride": 12,
      "name": "floatBufferViews",
      "target": 34962
    },
    {
      "buffer": 0,
      "byteLength": 132000,
      "byteOffset": 371040,
      "byteStride": 16,
      "name": "floatBufferViews",
      "target": 34962
    }
  ],
  "buffers": [
    {
      "byteLength": 503040,
      "uri": "scene.bin"
    }
  ],
  "images": [
    {
      "uri": "textures/Spartan_Black_Shader_baseColor.png"
    },
    {
      "uri": "textures/Spartan_Black_Shader_metallicRoughness.png"
    },
    {
      "uri": "textures/Spartan_Black_Shader_emissive.png"
    },
    {
      "uri": "textures/Spartan_Black_Shader_normal.png"
    }
  ],
  "materials": [
    {
      "emissiveFactor": [
        1.0,
        1.0,
        1.0
      ],
      "emissiveTexture": {
        "index": 2
      },
      "name": "Spartan_Black_Shader",
      "normalTexture": {
        "index": 3
      },
      "occlusionTexture": {
        "index": 1
      },
      "pbrMetallicRoughness": {
        "baseColorTexture": {
          "index": 0
        },
        "metallicRoughnessTexture": {
          "index": 1
        }
      }
    }
  ],
  "meshes": [
    {
      "name": "Object_0",
      "primitives": [
        {
          "attributes": {
            "NORMAL": 1,
            "POSITION": 0,
            "TANGENT": 2,
            "TEXCOORD_0": 3
          },
          "indices": 4,
          "material": 0,
          "mode": 4
        }
      ]
    },
    {
      "name": "Object_1",
      "primitives": [
        {
          "attributes": {
            "NORMAL": 6,
            "POSITION": 5,
            "TANGENT": 7,
            "TEXCOORD_0": 8
          },
          "indices": 9,
          "material": 0,
          "mode": 4
        }
      ]
    }
  ],
  "nodes": [
    {
      "children": [
        1
      ],
      "matrix": [
        0.012694287113845348,
        0.0,
        0.0,
        0.0,
        0.0,
        2.8186979669987063e-18,
        -0.012694287113845348,
        0.0,
        0.0,
        0.012694287113845348,
        2.8186979669987063e-18,
        0.0,
        0.0,
        0.0,
        0.0,
        1.0
      ],
      "name": "Sketchfab_model"
    },
    {
      "children": [
        2,
        3
      ],
      "name": "Scout_Helm_LP.obj.cleaner.materialmerger.gles"
    },
    {
      "mesh": 0,
      "name": "Object_2"
    },
    {
      "mesh": 1,
      "name": "Object_3"
    }
  ],
  "samplers": [
    {
      "magFilter": 9729,
      "minFilter": 9987,
      "wrapS": 10497,
      "wrapT": 10497
    }
  ],
  "scene": 0,
  "scenes": [
    {
      "name": "Sketchfab_Scene",
      "nodes": [
        0
      ]
    }
  ],
  "textures": [
    {
      "sampler": 0,
      "source": 0
    },
    {
      "sampler": 0,
      "source": 1
    },
    {
      "sampler": 0,
      "source": 2
    },
    {
      "sampler": 0,
      "source": 3
    }
  ]
}
